<svg xmlns="http://www.w3.org/2000/svg" viewBox="0 0 200 200" role="img" aria-labelledby="t d"><title id="t">Знак центра диагностики</title><desc id="d">Диагностическая линза, точка наблюдения и путь</desc><defs><linearGradient id="g" x1="20" y1="20" x2="180" y2="180"><stop stop-color="#e4c18d"/><stop offset="1" stop-color="#9a6a2f"/></linearGradient></defs><g fill="none" stroke="url(#g)" stroke-width="4" stroke-linecap="round"><path d="M31 100C51 62 72 43 100 43s49 19 69 57c-20 38-41 57-69 57s-49-19-69-57Z"/><path d="M100 24c25 18 39 43 39 76s-14 58-39 76c-25-18-39-43-39-76s14-58 39-76Z" opacity=".72"/><path d="M47 53c19 1 34-4 53-20 19 16 34 21 53 20M47 147c19-1 34 4 53 20 19-16 34-21 53-20" opacity=".48"/></g><circle cx="100" cy="100" r="18" fill="#f8f5ed"/><circle cx="100" cy="100" r="7" fill="#9a6a2f"/><path d="M100 79v42M79 100h42" stroke="#9a6a2f" stroke-width="2" opacity=".55"/></svg>
