<svg xmlns="http://www.w3.org/2000/svg" viewBox="0 0 520 520"><defs><radialGradient id="a"><stop stop-color="#9bc4b7" stop-opacity=".34"/><stop offset="1" stop-color="#9bc4b7" stop-opacity="0"/></radialGradient><filter id="glow"><feGaussianBlur stdDeviation="7" result="b"/><feMerge><feMergeNode in="b"/><feMergeNode in="SourceGraphic"/></feMerge></filter></defs><circle cx="260" cy="260" r="246" fill="url(#a)"/><g fill="none" stroke="#35665c" stroke-linecap="round"><path d="M260 36 452 148v224L260 484 68 372V148Z" opacity=".2"/><path d="m260 83 151 88v178l-151 88-151-88V171Z" opacity=".42"/><path d="m260 132 109 64v128l-109 64-109-64V196Z" stroke-width="2"/><path d="M260 36v96M452 148l-83 48M452 372l-83-48M260 484v-96M68 372l83-48M68 148l83 48" opacity=".42" stroke-dasharray="3 10"/></g><g fill="#35665c" filter="url(#glow)"><circle cx="260" cy="83" r="5"/><circle cx="411" cy="171" r="5"/><circle cx="411" cy="349" r="5"/><circle cx="260" cy="437" r="5"/><circle cx="109" cy="349" r="5"/><circle cx="109" cy="171" r="5"/></g><g><path d="m260 174 75 43v86l-75 43-75-43v-86Z" fill="#172f30"/><circle cx="260" cy="260" r="23" fill="#edf2ef"/><text x="260" y="270" text-anchor="middle" font-family="Georgia,serif" font-size="34" fill="#172724">В</text></g><g font-family="Arial,sans-serif" font-size="10" letter-spacing="2" fill="#61706b"><text x="260" y="24" text-anchor="middle">СИЛА</text><text x="487" y="265" text-anchor="middle" transform="rotate(90 487 265)">ЯСНОСТЬ</text><text x="260" y="509" text-anchor="middle">КОНТРОЛЬ</text></g></svg>
