<svg xmlns="http://www.w3.org/2000/svg" viewBox="0 0 520 520"><defs><radialGradient id="a"><stop stop-color="#e8b59b" stop-opacity=".36"/><stop offset="1" stop-color="#e8b59b" stop-opacity="0"/></radialGradient><filter id="glow"><feGaussianBlur stdDeviation="7" result="b"/><feMerge><feMergeNode in="b"/><feMergeNode in="SourceGraphic"/></feMerge></filter></defs><circle cx="260" cy="260" r="246" fill="url(#a)"/><g fill="none" stroke="#a95349" stroke-linecap="round"><path d="M260 43C368 43 456 132 456 240c0 117-93 217-196 237C157 457 64 357 64 240 64 132 152 43 260 43Z" opacity=".22"/><path d="M260 86c91 0 153 73 153 163 0 93-63 157-153 185-90-28-153-92-153-185 0-90 62-163 153-163Z" opacity=".45"/><path d="M260 132c67 0 109 53 109 119 0 70-47 113-109 143-62-30-109-73-109-143 0-66 42-119 109-119Z" stroke-width="2"/><path d="M143 191c70 25 164 25 234 0M128 292c84-30 180-30 264 0M174 370c59-28 113-28 172 0" opacity=".35" stroke-dasharray="3 10"/></g><g fill="#a95349" filter="url(#glow)"><circle cx="143" cy="191" r="5"/><circle cx="377" cy="191" r="5"/><circle cx="128" cy="292" r="5"/><circle cx="392" cy="292" r="5"/><circle cx="260" cy="394" r="6"/></g><g fill="#3b2834"><path d="M260 182c28 22 43 49 43 78s-15 56-43 78c-28-22-43-49-43-78s15-56 43-78Z" fill="#3b2834"/><circle cx="260" cy="260" r="22" fill="#f7efeb"/><text x="260" y="270" text-anchor="middle" font-family="Georgia,serif" font-size="34">Е</text></g><g font-family="Arial,sans-serif" font-size="10" letter-spacing="2" fill="#776269"><text x="260" y="30" text-anchor="middle">ЧУТКОСТЬ</text><text x="478" y="265" text-anchor="middle" transform="rotate(90 478 265)">ЯСНОСТЬ</text><text x="260" y="507" text-anchor="middle">ОПОРА</text></g></svg>
